<svg width="35" height="35" viewBox="0 0 35 35" fill="none" xmlns="http://www.w3.org/2000/svg">
<g clip-path="url(#clip0_136_832)">
<path d="M17.9023 24.5031C18.2176 24.5031 18.5257 24.4096 18.7878 24.2345C19.0499 24.0593 19.2541 23.8104 19.3748 23.5192C19.4954 23.228 19.527 22.9075 19.4655 22.5984C19.404 22.2892 19.2522 22.0052 19.0293 21.7824C18.8064 21.5595 18.5224 21.4077 18.2133 21.3462C17.9041 21.2847 17.5837 21.3162 17.2924 21.4369C17.0012 21.5575 16.7523 21.7618 16.5772 22.0239C16.4021 22.286 16.3086 22.5941 16.3086 22.9093C16.3091 23.3318 16.4771 23.737 16.7759 24.0357C17.0747 24.3345 17.4798 24.5026 17.9023 24.5031ZM17.9023 22.3781C18.0074 22.3781 18.1101 22.4092 18.1975 22.4676C18.2849 22.526 18.3529 22.6089 18.3932 22.706C18.4334 22.8031 18.4439 22.9099 18.4234 23.0129C18.4029 23.116 18.3523 23.2107 18.278 23.285C18.2037 23.3592 18.109 23.4098 18.006 23.4303C17.9029 23.4508 17.7961 23.4403 17.699 23.4001C17.602 23.3599 17.519 23.2918 17.4606 23.2044C17.4023 23.1171 17.3711 23.0144 17.3711 22.9093C17.3713 22.7685 17.4273 22.6334 17.5269 22.5338C17.6265 22.4342 17.7615 22.3782 17.9023 22.3781Z" fill="#FE6035"/>
<path d="M34.3711 33.0031H30.6523V29.3679C30.6436 29.1208 30.5804 28.8786 30.4673 28.6587C30.3543 28.4387 30.194 28.2464 29.9981 28.0955L29.5898 27.8033V25.2999H30.1211C30.262 25.2999 30.3971 25.244 30.4967 25.1443C30.5964 25.0447 30.6523 24.9096 30.6523 24.7687C30.6523 24.6278 30.5964 24.4927 30.4967 24.393C30.3971 24.2934 30.262 24.2374 30.1211 24.2374H29.5898V23.7062C29.5898 23.5653 29.5339 23.4302 29.4342 23.3305C29.3346 23.2309 29.1995 23.1749 29.0586 23.1749C28.9177 23.1749 28.7826 23.2309 28.6829 23.3305C28.5833 23.4302 28.5273 23.5653 28.5273 23.7062V24.2374H27.9961C27.8552 24.2374 27.7201 24.2934 27.6204 24.393C27.5208 24.4927 27.4648 24.6278 27.4648 24.7687C27.4648 24.9096 27.5208 25.0447 27.6204 25.1443C27.7201 25.244 27.8552 25.2999 27.9961 25.2999H28.5273V27.0427L26.1367 25.3316V24.2106C26.1189 23.7252 25.9132 23.2658 25.5629 22.9293L22.1523 19.8833V14.6749H22.6836C22.8245 14.6749 22.9596 14.619 23.0592 14.5193C23.1589 14.4197 23.2148 14.2846 23.2148 14.1437C23.2148 14.0028 23.1589 13.8677 23.0592 13.768C22.9596 13.6684 22.8245 13.6124 22.6836 13.6124H21.6211V10.6906H21.8867C22.0276 10.6906 22.1627 10.6346 22.2624 10.535C22.362 10.4353 22.418 10.3002 22.418 10.1593C22.418 10.0184 22.362 9.88328 22.2624 9.78365C22.1627 9.68402 22.0276 9.62805 21.8867 9.62805H20.887L18.4336 4.72124V2.7218H19.4961C19.637 2.7218 19.7721 2.66583 19.8717 2.5662C19.9714 2.46657 20.0273 2.33145 20.0273 2.19055C20.0273 2.04966 19.9714 1.91453 19.8717 1.8149C19.7721 1.71527 19.637 1.6593 19.4961 1.6593H18.4336V0.596802C18.4336 0.455905 18.3776 0.32078 18.278 0.221151C18.1784 0.121523 18.0432 0.0655518 17.9023 0.0655518C17.7614 0.0655518 17.6263 0.121523 17.5267 0.221151C17.4271 0.32078 17.3711 0.455905 17.3711 0.596802V1.6593H16.3086C16.1677 1.6593 16.0326 1.71527 15.9329 1.8149C15.8333 1.91453 15.7773 2.04966 15.7773 2.19055C15.7773 2.33145 15.8333 2.46657 15.9329 2.5662C16.0326 2.66583 16.1677 2.7218 16.3086 2.7218H17.3711V4.72124L14.9177 9.62805H13.918C13.7771 9.62805 13.6419 9.68402 13.5423 9.78365C13.4427 9.88328 13.3867 10.0184 13.3867 10.1593C13.3867 10.3002 13.4427 10.4353 13.5423 10.535C13.6419 10.6346 13.7771 10.6906 13.918 10.6906H14.1836V13.6124H13.1211C12.9802 13.6124 12.8451 13.6684 12.7454 13.768C12.6458 13.8677 12.5898 14.0028 12.5898 14.1437C12.5898 14.2846 12.6458 14.4197 12.7454 14.5193C12.8451 14.619 12.9802 14.6749 13.1211 14.6749H13.6523V19.8831L10.2416 22.9291C9.89141 23.2657 9.6857 23.7252 9.66797 24.2106V25.3316L7.27734 27.0427V25.5656H7.80859C7.94949 25.5656 8.08462 25.5096 8.18424 25.41C8.28387 25.3103 8.33984 25.1752 8.33984 25.0343C8.33984 24.8934 8.28387 24.7583 8.18424 24.6587C8.08462 24.559 7.94949 24.5031 7.80859 24.5031H7.27734V23.9718C7.27734 23.8309 7.22137 23.6958 7.12174 23.5962C7.02212 23.4965 6.88699 23.4406 6.74609 23.4406C6.6052 23.4406 6.47007 23.4965 6.37044 23.5962C6.27081 23.6958 6.21484 23.8309 6.21484 23.9718V24.5031H5.68359C5.5427 24.5031 5.40757 24.559 5.30794 24.6587C5.20831 24.7583 5.15234 24.8934 5.15234 25.0343C5.15234 25.1752 5.20831 25.3103 5.30794 25.41C5.40757 25.5096 5.5427 25.5656 5.68359 25.5656H6.21484V27.8031L5.80642 28.0955C5.61052 28.2464 5.45034 28.4387 5.33728 28.6587C5.22422 28.8786 5.16108 29.1208 5.15234 29.3679V33.0031H1.43359C1.2927 33.0031 1.15757 33.059 1.05794 33.1586C0.958315 33.2583 0.902344 33.3934 0.902344 33.5343C0.902344 33.6752 0.958315 33.8103 1.05794 33.91C1.15757 34.0096 1.2927 34.0656 1.43359 34.0656H34.3711C34.512 34.0656 34.6471 34.0096 34.7467 33.91C34.8464 33.8103 34.9023 33.6752 34.9023 33.5343C34.9023 33.3934 34.8464 33.2583 34.7467 33.1586C34.6471 33.059 34.512 33.0031 34.3711 33.0031ZM29.3797 28.9595C29.4974 29.0653 29.5722 29.2107 29.5898 29.3679V33.0031H26.1367V26.6383L29.3797 28.9595ZM20.5581 10.6906H20.5586V13.6124H15.2461V10.6906H20.5581ZM17.9023 6.03473L19.6989 9.62805H16.1057L17.9023 6.03473ZM14.7148 14.6749H21.0898V18.9344L18.2562 16.4037C18.1588 16.3167 18.0329 16.2687 17.9023 16.2687C17.7718 16.2687 17.6459 16.3167 17.5485 16.4037L14.7148 18.9343V14.6749ZM10.9493 23.7217L17.9023 17.5122L24.8556 23.7219C24.9796 23.8567 25.0564 24.0282 25.0742 24.2106V33.0031H21.3555V29.3967C21.3555 27.5772 19.8063 26.0968 17.9023 26.0968C15.9982 26.0968 14.4492 27.5772 14.4492 29.3967V33.0031H10.7305V24.2106C10.7483 24.0282 10.8251 23.8565 10.9493 23.7217ZM20.293 33.0031H15.5117V29.3967C15.5117 28.163 16.5842 27.1593 17.9023 27.1593C19.2206 27.1593 20.293 28.163 20.293 29.3967V33.0031ZM6.21484 29.3679C6.23242 29.2107 6.30714 29.0653 6.42482 28.9595L9.66797 26.6383V33.0031H6.21484V29.3679Z" fill="#FE6035"/>
<path d="M11.4524 8.26739C11.613 8.20945 11.7839 8.18503 11.9543 8.19562C12.1248 8.20622 12.2913 8.25162 12.4435 8.32901C12.5695 8.39207 12.7154 8.40248 12.8491 8.35797C12.9828 8.31346 13.0933 8.21767 13.1564 8.09166C13.2194 7.96566 13.2298 7.81977 13.1853 7.68608C13.1408 7.5524 13.045 7.44187 12.919 7.37882C12.6384 7.23646 12.3316 7.15313 12.0176 7.13397C11.7035 7.11481 11.3889 7.16023 11.0931 7.26742C10.7825 7.38004 10.4983 7.55507 10.258 7.78172C10.0177 8.00838 9.82631 8.28185 9.69571 8.58529C9.42936 9.18525 9.40046 9.86391 9.61486 10.4843C9.82926 11.1048 10.271 11.6208 10.8509 11.9283C10.9769 11.991 11.1225 12.0013 11.256 11.9567C11.3894 11.9122 11.4998 11.8165 11.5628 11.6907C11.6258 11.5649 11.6363 11.4193 11.592 11.2857C11.5478 11.1522 11.4523 11.0416 11.3267 10.9784C10.9888 10.7952 10.7329 10.4908 10.6106 10.1265C10.4882 9.76221 10.5086 9.36506 10.6674 9.01512C10.7403 8.84352 10.8476 8.68865 10.9825 8.56006C11.1175 8.43146 11.2774 8.33186 11.4524 8.26739Z" fill="#FE6035"/>
<path d="M7.45616 8.02824L8.47133 8.53731C8.59726 8.60047 8.74312 8.611 8.87683 8.56661C9.01053 8.52222 9.12112 8.42653 9.18428 8.3006C9.24743 8.17467 9.25797 8.0288 9.21358 7.8951C9.16918 7.7614 9.0735 7.6508 8.94756 7.58765L7.9324 7.07858C7.80647 7.01543 7.6606 7.00489 7.5269 7.04928C7.39319 7.09367 7.2826 7.18936 7.21945 7.31529C7.15629 7.44122 7.14575 7.58709 7.19015 7.72079C7.23454 7.85449 7.33023 7.96509 7.45616 8.02824Z" fill="#FE6035"/>
<path d="M7.24906 9.88074C7.24906 9.88074 8.38756 9.94117 8.39715 9.94117C8.5355 9.94096 8.6683 9.88678 8.76732 9.79016C8.86635 9.69354 8.92377 9.56211 8.92739 9.42381C8.931 9.28551 8.88052 9.15125 8.78669 9.04959C8.69285 8.94793 8.56305 8.88689 8.42491 8.87944L7.30559 8.81978C7.23592 8.81607 7.16621 8.82612 7.10043 8.84935C7.03465 8.87258 6.97409 8.90854 6.9222 8.95517C6.87032 9.00181 6.82813 9.05821 6.79804 9.12115C6.76795 9.18409 6.75056 9.25234 6.74685 9.322C6.74313 9.39166 6.75318 9.46138 6.77641 9.52716C6.79964 9.59294 6.8356 9.6535 6.88224 9.70538C6.92887 9.75727 6.98527 9.79946 7.04821 9.82955C7.11115 9.85963 7.1794 9.87703 7.24906 9.88074Z" fill="#FE6035"/>
<path d="M9.09146 10.597C9.06684 10.5317 9.02959 10.4719 8.98184 10.421C8.9341 10.3702 8.8768 10.3292 8.81321 10.3005C8.74962 10.2717 8.681 10.2558 8.61126 10.2536C8.54152 10.2514 8.47203 10.263 8.40676 10.2877L7.35334 10.6856C7.22153 10.7354 7.11489 10.8355 7.05688 10.9639C6.99887 11.0923 6.99425 11.2385 7.04402 11.3703C7.09528 11.5009 7.19555 11.6064 7.32346 11.6642C7.45136 11.722 7.59678 11.7275 7.7287 11.6796L8.78212 11.2817C8.91393 11.2319 9.02058 11.1318 9.07859 11.0034C9.13661 10.875 9.14123 10.7288 9.09146 10.597Z" fill="#FE6035"/>
<path d="M8.81508 13.1559L9.64258 12.3595C9.69298 12.3112 9.73336 12.2534 9.76139 12.1894C9.78943 12.1255 9.80458 12.0566 9.80598 11.9868C9.80737 11.917 9.79499 11.8475 9.76953 11.7825C9.74408 11.7175 9.70605 11.6581 9.65762 11.6078C9.60919 11.5575 9.55132 11.5172 9.48732 11.4893C9.42331 11.4613 9.35442 11.4463 9.2846 11.445C9.21478 11.4438 9.14539 11.4563 9.0804 11.4818C9.01541 11.5074 8.95611 11.5455 8.90587 11.594L8.0784 12.3904C7.97709 12.4881 7.91872 12.6221 7.91611 12.7628C7.91349 12.9036 7.96685 13.0396 8.06447 13.141C8.16208 13.2424 8.29596 13.301 8.4367 13.3038C8.57744 13.3066 8.71353 13.2534 8.81508 13.1559Z" fill="#FE6035"/>
<path d="M9.6414 14.3638C9.77037 14.4196 9.91608 14.4224 10.0472 14.3718C10.1782 14.3212 10.2842 14.2211 10.3422 14.0931L10.8169 13.0209C10.8736 12.8921 10.877 12.7461 10.8261 12.6148C10.7753 12.4836 10.6745 12.3779 10.5458 12.3209C10.4171 12.264 10.2711 12.2604 10.1398 12.311C10.0085 12.3616 9.90261 12.4622 9.84543 12.5908L9.3707 13.663C9.34245 13.7268 9.32704 13.7955 9.32535 13.8653C9.32366 13.935 9.33573 14.0044 9.36087 14.0695C9.38601 14.1346 9.42372 14.1941 9.47186 14.2446C9.51999 14.2951 9.5776 14.3356 9.6414 14.3638Z" fill="#FE6035"/>
<path d="M12.9629 6.85718C13.0919 6.91285 13.2376 6.91565 13.3686 6.86497C13.4997 6.8143 13.6056 6.7142 13.6636 6.58622L14.1378 5.51413C14.1948 5.38527 14.1983 5.23905 14.1475 5.10763C14.0966 4.97621 13.9957 4.87036 13.8669 4.81336C13.738 4.75636 13.5918 4.75288 13.4604 4.80369C13.3289 4.8545 13.2231 4.95544 13.1661 5.08429L12.6919 6.15641C12.6349 6.28527 12.6314 6.43149 12.6822 6.56291C12.7331 6.69433 12.834 6.80018 12.9629 6.85718Z" fill="#FE6035"/>
<path d="M11.8819 6.56247C11.9521 6.56744 12.0225 6.55802 12.0889 6.53479C12.1553 6.51155 12.2163 6.475 12.2681 6.42736C12.3198 6.37973 12.3613 6.32202 12.39 6.25778C12.4186 6.19354 12.4339 6.12412 12.4347 6.05378L12.484 4.86885C12.4898 4.72809 12.4395 4.59077 12.3441 4.48711C12.2487 4.38344 12.1161 4.32192 11.9753 4.31607C11.8346 4.31022 11.6972 4.36053 11.5936 4.45593C11.4899 4.55133 11.4284 4.684 11.4225 4.82476L11.3733 6.00968C11.3693 6.14994 11.4202 6.28621 11.5153 6.38946C11.6103 6.49271 11.7418 6.55479 11.8819 6.56247Z" fill="#FE6035"/>
<path d="M10.1044 6.40631C10.1515 6.53855 10.2483 6.64718 10.3743 6.70901C10.5003 6.77085 10.6455 6.781 10.7788 6.7373C10.8449 6.71476 10.9058 6.67943 10.9582 6.63333C11.0105 6.58723 11.0533 6.53127 11.0841 6.46864C11.1148 6.40601 11.1329 6.33794 11.1373 6.26831C11.1417 6.19869 11.1324 6.12887 11.1098 6.06285L10.7283 4.94563C10.6827 4.81231 10.5861 4.70253 10.4596 4.64046C10.3331 4.57839 10.1872 4.5691 10.0538 4.61464C9.92052 4.66018 9.81075 4.75682 9.74867 4.8833C9.6866 5.00978 9.67731 5.15573 9.72285 5.28906L10.1044 6.40631Z" fill="#FE6035"/>
<path d="M9.08348 7.29384C9.12892 7.34687 9.18437 7.39042 9.24665 7.42201C9.30894 7.45359 9.37684 7.47258 9.44647 7.47789C9.51611 7.48321 9.58611 7.47474 9.65246 7.45297C9.71882 7.43121 9.78023 7.39657 9.83319 7.35105C9.88615 7.30553 9.92961 7.25001 9.96109 7.18767C9.99257 7.12533 10.0115 7.0574 10.0167 6.98776C10.0219 6.91811 10.0133 6.84813 9.9914 6.78181C9.96952 6.71549 9.93479 6.65413 9.88918 6.60125L9.13289 5.72136C9.08745 5.66833 9.032 5.62478 8.96972 5.59319C8.90743 5.56161 8.83953 5.54262 8.7699 5.53731C8.70026 5.53199 8.63027 5.54046 8.56391 5.56223C8.49755 5.58399 8.43614 5.61863 8.38318 5.66415C8.33022 5.70967 8.28676 5.76519 8.25528 5.82753C8.2238 5.88987 8.20492 5.9578 8.19972 6.02744C8.19452 6.09709 8.2031 6.16707 8.22497 6.23339C8.24685 6.29971 8.28158 6.36107 8.32719 6.41395L9.08348 7.29384Z" fill="#FE6035"/>
<path d="M12.3242 30.6124H12.8555C12.9964 30.6124 13.1315 30.5565 13.2311 30.4568C13.3307 30.3572 13.3867 30.2221 13.3867 30.0812C13.3867 29.9403 13.3307 29.8052 13.2311 29.7055C13.1315 29.6059 12.9964 29.5499 12.8555 29.5499H12.3242C12.1833 29.5499 12.0482 29.6059 11.9486 29.7055C11.8489 29.8052 11.793 29.9403 11.793 30.0812C11.793 30.2221 11.8489 30.3572 11.9486 30.4568C12.0482 30.5565 12.1833 30.6124 12.3242 30.6124Z" fill="#FE6035"/>
<path d="M22.9492 30.6124H23.4805C23.6214 30.6124 23.7565 30.5565 23.8561 30.4568C23.9557 30.3572 24.0117 30.2221 24.0117 30.0812C24.0117 29.9403 23.9557 29.8052 23.8561 29.7055C23.7565 29.6059 23.6214 29.5499 23.4805 29.5499H22.9492C22.8083 29.5499 22.6732 29.6059 22.5736 29.7055C22.4739 29.8052 22.418 29.9403 22.418 30.0812C22.418 30.2221 22.4739 30.3572 22.5736 30.4568C22.6732 30.5565 22.8083 30.6124 22.9492 30.6124Z" fill="#FE6035"/>
</g>
<defs>
<clipPath id="clip0_136_832">
<rect width="34" height="34" fill="white" transform="translate(0.902344 0.0655518)"/>
</clipPath>
</defs>
</svg>
